<?xml version="1.0" encoding="UTF-8"?>
<svg width="540" height="540" version="1.1" viewBox="0 0 540 540" xmlns="http://www.w3.org/2000/svg">
 <g transform="translate(2.1 15)">
  <g transform="matrix(4.7 0 0 4.7 -211 -432)">
   <g fill="#fdcb1f">
    <path d="m57 162h90c0-50-90-47-90 0z" stroke-width="1.7"/>
    <path d="m68 136c2e-6 1.8-1.5 3.3-3.3 3.3s-3.3-1.5-3.3-3.3c1e-6 -1.8 1.5-3.3 3.3-3.3 0.48 0 1.3 4e-3 1.2 0.13-1.3 1.9-1.4 2.1-0.055 1.2 1.4-0.86 1.4-0.75 0.52 0.55s-0.75 1.2 1.3-0.21c0.21-0.01 0.31 1.5 0.31 1.6z" stroke-width="1.6"/>
    <circle cx="103" cy="122" r="3.5" stroke-width="1.6"/>
    <path d="m63 137c-9.8 11-9.9 25-9.9 25h2c0-15 8.8-24 8.8-24z" stroke-width="1.6"/>
   </g>
   <rect x="52" y="163" width="100" height="11" fill="#fd9d1f" stroke-width="1.5"/>
   <path d="m68 143s7.6-9.9 16-11c0 0-11 5.1-16 11z" fill="#fff288" stroke-width="1.5"/>
  </g>
 </g>
</svg>
